<svg xmlns="http://www.w3.org/2000/svg" width="24" height="24" viewBox="0 0 24 24" id="redo">
  <g transform="translate(-480 -216)">
    <path fill="none" d="M0,0H24V24H0Z" transform="translate(480 216)"></path>
    <path fill="#525863" d="M7.65,4.65h8.46L13,1.536A.9.9,0,0,1,14.27.264l4.667,4.667a.9.9,0,0,1,0,1.273L14.27,10.87A.9.9,0,0,1,13,9.6L16.144,6.45H7.65a5.645,5.645,0,0,0-5.85,5.4,5.645,5.645,0,0,0,5.85,5.4h.9a.9.9,0,1,1,0,1.8h-.9A7.444,7.444,0,0,1,0,11.85,7.444,7.444,0,0,1,7.65,4.65Z" transform="translate(482.4 218.4)"></path>
  </g>
</svg>